<svg width="50" height="50" viewBox="0 0 50 50" fill="none" xmlns="http://www.w3.org/2000/svg">
<path d="M25 15C18.75 15 13.4125 18.8875 11.25 24.375C13.4125 29.8625 18.75 33.75 25 33.75C31.25 33.75 36.5875 29.8625 38.75 24.375C36.5875 18.8875 31.25 15 25 15ZM25 30.625C21.55 30.625 18.75 27.825 18.75 24.375C18.75 20.925 21.55 18.125 25 18.125C28.45 18.125 31.25 20.925 31.25 24.375C31.25 27.825 28.45 30.625 25 30.625ZM25 20.625C22.925 20.625 21.25 22.3 21.25 24.375C21.25 26.45 22.925 28.125 25 28.125C27.075 28.125 28.75 26.45 28.75 24.375C28.75 22.3 27.075 20.625 25 20.625Z" fill="#329D9C"/>
</svg>
